<svg width="819" height="819" viewBox="0 0 819 819" fill="none" xmlns="http://www.w3.org/2000/svg">
<path d="M709.755 308.615C721.523 308.552 730.925 309.137 738.628 315.586C743.784 321.175 745.15 326.705 745.146 335.039V335.062C745.148 335.667 745.149 335.97 745.15 336.276C745.152 336.581 745.153 336.89 745.155 337.507L745.168 345.479V345.485L745.178 351.038L745.186 362.653C745.185 367.636 745.199 372.618 745.216 377.594C745.221 379.499 745.225 381.405 745.227 383.311L745.229 389.035V389.039L745.242 394.56C745.252 397.103 745.249 399.65 745.243 402.206V402.254C745.249 402.995 745.254 403.736 745.26 404.499C745.252 405.855 745.245 406.706 745.213 407.34C745.212 407.362 745.209 407.383 745.208 407.404C739.21 408.302 733.108 408.066 726.235 408H726.203C688.223 407.88 654.097 409.514 624.12 439.011C623.489 439.592 623.103 439.948 622.793 440.212C622.498 440.464 622.39 440.531 622.359 440.55C622.246 440.619 622.109 440.693 620.419 441.256L618.541 441.882L617.601 443.625C616.943 444.842 616.328 446.07 615.746 447.297C615.299 447.84 615.072 448.113 614.834 448.381C614.531 448.722 614.202 449.068 613.372 449.937L613.356 449.955C612.774 450.57 612.192 451.185 611.593 451.819L609.703 453.791L609.691 453.801L609.681 453.813C608.399 455.167 607.119 456.522 605.84 457.877C604.928 458.842 604.927 458.842 603.996 459.827L603.989 459.834L603.981 459.842C601.535 462.452 599.205 465.124 596.935 467.761C594.782 470.23 592.569 472.65 590.307 475.129L590.304 475.132C585.914 479.951 581.584 484.824 577.331 489.782L575.515 491.91C569.951 498.452 564.318 504.862 558.493 511.117H558.492C555.284 514.562 552.155 518.057 549.081 521.616C547.234 523.71 545.335 525.771 543.392 527.867L543.391 527.868C539.467 532.101 535.598 536.424 531.92 541.049C525.617 548.865 518.59 556.046 511.395 563.536L511.385 563.545L511.376 563.555L509.709 565.309C485.372 590.868 453.789 608.559 419.728 617.994L419.717 617.997L419.706 618C418.728 618.276 417.749 618.551 416.742 618.834C399.78 623.304 382.613 624.558 364.783 624.438H364.768C363.298 624.433 363.296 624.432 361.801 624.427H361.802C346.661 624.352 332.499 623.617 318.18 620.141L318.163 620.137L318.147 620.133L315.046 619.402H315.045C285.738 612.312 258.372 599.304 235.185 580.145L232.173 577.657C226.235 572.705 220.462 567.6 214.787 562.327L214.782 562.322L214.776 562.317L213.182 560.865C209.454 557.515 205.622 554.376 201.812 551.309C198.444 548.535 195.22 545.583 191.885 542.515L191.843 542.476L191.799 542.438C188.377 539.434 184.779 536.778 181.267 534.257C180.703 533.615 180.527 533.207 180.419 532.861C180.364 532.685 180.318 532.496 180.275 532.271C180.491 532.143 180.679 532.047 180.856 531.97C181.367 531.75 182.076 531.56 183.555 531.522L183.572 531.521H183.589C184.507 531.491 185.425 531.461 186.371 531.43L186.37 531.429C187.371 531.411 188.374 531.394 189.405 531.375L189.466 531.373C190.56 531.339 191.654 531.305 192.781 531.27L192.782 531.271C199.655 531.075 206.538 530.977 213.451 530.899H213.454C217.55 530.85 221.645 530.788 225.73 530.726L225.731 530.727C228.711 530.689 231.693 530.672 234.695 530.656H234.724C248.573 530.504 261.634 528.808 275.06 525.885L275.061 525.886C275.773 525.731 276.49 525.576 277.225 525.417L277.233 525.415L277.243 525.413C308.669 518.466 337.849 501.238 360.7 479.252C362.89 477.156 365.122 475.17 367.464 473.205L367.495 473.179L367.525 473.153C371.522 469.688 374.933 465.885 378.179 462.201C381.141 458.868 384.184 455.6 387.278 452.289L387.282 452.284C391.269 448.007 395.242 443.671 399.109 439.195C403.325 434.346 407.655 429.627 412.039 424.773L412.041 424.77C415.415 421.029 418.81 417.253 422.146 413.408C425.546 409.502 429.06 405.688 432.631 401.809L432.634 401.806C435.205 399.009 437.765 396.175 440.278 393.275C443.164 389.945 446.144 386.683 449.179 383.387V383.386C452.853 379.395 456.482 375.36 460.052 371.252C463.537 367.259 467.098 363.321 470.698 359.365L470.707 359.356L470.715 359.347C471.234 358.771 471.752 358.194 472.287 357.6L472.288 357.601C491.42 336.406 513.024 321.232 540.302 313.498L540.311 313.496L540.319 313.493C541.146 313.255 541.972 313.017 542.822 312.773C555.75 309.339 569.185 308.698 583.05 308.725H583.074C584.596 308.721 586.118 308.715 587.64 308.709L587.639 308.708C591.698 308.695 595.759 308.696 599.826 308.699H599.828C603.25 308.7 606.672 308.695 610.088 308.69C618.148 308.679 626.208 308.678 634.27 308.684H634.271C638.417 308.687 642.563 308.686 646.709 308.681L659.145 308.657C666.293 308.639 673.441 308.633 680.591 308.636C684.85 308.638 689.113 308.636 693.377 308.622L693.376 308.621C697.362 308.608 701.35 308.612 705.339 308.625H705.347C706.816 308.627 708.286 308.624 709.756 308.616L709.755 308.615Z" fill="white" stroke="white" stroke-width="10"/>
<path d="M74.7713 382.493C74.7701 380.34 74.7654 378.187 74.7576 376.035C74.7479 373.054 74.7506 370.069 74.7567 367.078V367.037C74.7512 366.162 74.7457 365.287 74.7401 364.386C74.7482 362.813 74.7539 361.777 74.7879 360.999C74.796 360.813 74.8059 360.66 74.8152 360.534C84.1898 358.761 93.8872 358.621 104.028 358.436H104.041C111.53 358.281 119.079 358.106 126.645 357.731L129.888 357.558C131.133 357.487 132.378 357.415 133.66 357.341L133.757 357.336L133.853 357.327C165.334 354.29 187.877 331.315 206.11 310.189L206.109 310.188C208.684 307.234 211.376 304.376 214.147 301.42L214.151 301.416C222.413 292.585 222.482 292.506 230.171 283.18L230.17 283.179C230.221 283.119 230.272 283.06 230.323 283H233.221L234.553 280.067C234.793 279.538 235.032 279.008 235.278 278.466C236.175 276.821 237.103 275.659 238.628 274.062L238.636 274.054L238.643 274.046C239.226 273.43 239.808 272.815 240.407 272.181C241.031 271.531 241.655 270.88 242.298 270.21L242.308 270.198L242.319 270.187C243.603 268.831 244.885 267.474 246.167 266.116L246.166 266.115C246.773 265.473 247.382 264.831 248.008 264.17L248.015 264.161L248.023 264.153C250.456 261.557 252.769 258.897 255.02 256.281C256.758 254.298 258.536 252.347 260.346 250.377L262.178 248.387C265.198 245.108 268.243 241.775 271.21 238.344C287.749 219.33 304.897 202.888 325.747 189.177L325.757 189.172L325.767 189.165C326.307 188.806 326.846 188.447 327.402 188.078C349.31 173.678 374.741 165.272 400.821 160.932L400.83 160.93L400.839 160.929C401.525 160.813 402.211 160.696 402.918 160.576C461.451 151.029 520.329 171.637 568.158 205.692L568.16 205.693C570.192 207.139 572.23 208.568 574.259 209.988V209.989C583.807 216.683 593.272 223.505 602.743 230.368L602.746 230.371C605.176 232.129 607.609 233.88 610.04 235.628V235.629C611.258 236.505 611.258 236.505 612.501 237.4H612.502C614.051 238.515 615.602 239.629 617.153 240.743V240.744C622.543 244.627 624.932 246.355 626.221 247.464C626.337 247.563 626.436 247.653 626.521 247.731C625.863 248.198 625.556 248.293 625.37 248.341C624.909 248.459 624.293 248.499 622.268 248.499H622.223C621.077 248.509 619.931 248.518 618.751 248.528C617.511 248.52 616.271 248.512 614.994 248.504H614.925L608.916 248.549C605.412 248.57 601.909 248.564 598.377 248.562H598.372C592.892 248.565 587.407 248.583 581.919 248.629C581.246 248.634 580.573 248.64 579.88 248.646H579.87C533.078 249.128 486.584 261.642 448.93 291.052C447.694 292.014 447.694 292.014 446.433 292.995L446.411 293.012L446.388 293.031C439.333 298.65 432.954 304.694 426.745 310.978C425.198 312.543 423.641 314.103 422.074 315.67L422.067 315.675C417.195 320.565 412.352 325.579 407.765 330.935C405.251 333.85 402.602 336.647 399.852 339.58L399.845 339.589C395.885 343.83 391.953 348.13 388.122 352.571C385.081 356.018 381.941 359.368 378.734 362.825L378.731 362.828C376.062 365.711 373.389 368.643 370.779 371.669C367.039 375.997 363.115 380.156 359.1 384.458L359.097 384.462C356.311 387.453 353.499 390.505 350.772 393.676C346.768 398.331 342.518 402.773 338.165 407.374L338.156 407.383C337.273 408.322 337.272 408.322 336.371 409.28C335.842 409.839 335.314 410.398 334.769 410.973L334.742 411.002L334.716 411.03C333.957 411.857 333.367 412.493 332.757 413.317C332.599 413.531 332.441 413.757 332.276 414H329.727L328.418 417C328.192 417.516 327.967 418.032 327.736 418.56C326.926 419.99 326.254 420.681 324.563 422.034L324.536 422.055L324.51 422.078C322.305 423.893 320.2 425.729 318.09 427.84C284.228 461.701 241.963 473.271 194.388 473.751H194.372L190.477 473.801C169.018 474.079 147.55 474.024 126.068 473.775H126.065C123.808 473.751 121.553 473.73 119.302 473.712H119.303C115.764 473.681 112.224 473.635 108.681 473.577H108.674C106.742 473.548 104.813 473.533 102.903 473.518C93.5349 473.332 87.3702 472.091 81.3836 466.545C77.1828 461.716 74.8799 456.672 74.866 450.839V450.824L74.8533 448.372C74.8538 447.482 74.8538 446.592 74.8543 445.675V445.656L74.8445 442.797C74.8351 439.687 74.8329 436.576 74.8318 433.46V433.454L74.8221 426.96C74.8161 422.429 74.8137 417.898 74.8143 413.366V413.365C74.8143 410.45 74.811 407.536 74.8055 404.623L74.784 395.883C74.7729 391.423 74.7708 386.961 74.7713 382.496V382.493Z" fill="white" stroke="white" stroke-width="10"/>
</svg>
